<?xml version="1.0" encoding="utf-8"?>
<svg viewBox="0 0 360 500" xmlns="http://www.w3.org/2000/svg">
  <defs>
    <style id="style3505">.cls-1{fill:#fff;}.cls-2{fill:#fefefe;}.cls-3{fill:#8d729a;}.cls-4{fill:#816092;}.cls-5{fill:#a38ab1;}.cls-6{fill:#343434;}.cls-7{fill:#353535;}.cls-8{fill:#745a7f;}.cls-9{fill:#b6a9bc;}.cls-10{fill:#a88fb4;}.cls-11{fill:#373737;}.cls-12{fill:#3a3a3a;}.cls-13{fill:#a9a1ad;}.cls-14{fill:#684976;}.cls-15{fill:#7c5c8c;}.cls-16{fill:#af9cb8;}.cls-17{fill:#d8d3da;}.cls-18{fill:#3f3f3f;}.cls-19{fill:#e1e0e2;}.cls-20{fill:#513061;}.cls-21{fill:#461c5c;}.cls-22{fill:#cac2ce;}.cls-23{fill:#9984a3;}.cls-24{fill:#a99ab0;}.cls-25{fill:#745682;}.cls-26{fill:#fdfdfd;}.cls-27{fill:#7c6685;}.cls-28{fill:#60476b;}.cls-29{fill:#887d8c;}.cls-30{fill:#8e7f95;}.cls-31{fill:#90799b;}.cls-32{fill:#efebf1;}.cls-33{fill:#6f567b;}.cls-34{fill:#5a356c;}.cls-35{fill:#644573;}.cls-36{fill:#4b235e;}.cls-37{fill:#654a71;}</style>
  </defs>
  <path class="cls-3" d="M 25.954 277.289 L 31.865 272.364 C 48.219 269.865 64.933 272.397 79.81 279.587 C 84.111 295.715 82.108 312.86 74.226 327.541 C 71.075 331.483 66.082 333.453 61.092 332.796 C 48.613 328.231 35.183 336.638 33.836 349.876 C 32.95 353.323 29.139 355.064 25.954 353.488 L 25.954 277.289 Z" id="path3515"/>
  <path class="cls-4" d="M 25.954 353.815 C 28.581 320.971 48.285 320.971 71.27 327.867 C 80.138 342.09 81.615 359.694 75.212 375.164 C 52.226 390.929 42.373 371.224 29.896 358.743 L 27.925 358.743 L 25.954 358.743 L 25.954 353.815 Z" id="path3517"/>
  <path class="cls-5" d="M 163.221 28.002 L 187.849 8.952 L 193.103 8.952 C 196.945 20.58 197.963 32.994 196.058 45.081 C 189.819 58.22 181.939 67.743 165.519 58.22 C 161.71 48.627 160.92 38.086 163.221 28.002 Z" id="path3519"/>
  <path class="cls-8" d="M 334.633 348.235 L 334.633 353.815 C 318.214 383.373 286.033 386.658 259.108 399.469 C 249.749 403.442 239.303 404.033 229.551 401.11 C 223.643 398.483 237.107 391.259 224.957 386.99 C 209.916 379.63 197.208 368.268 188.176 354.145 C 181.15 348.956 179.279 339.232 183.909 331.811 C 200.328 325.24 218.388 326.882 234.478 319.329 C 252.176 313.221 268.628 303.99 283.076 292.071 C 304.423 306.519 315.258 331.154 334.633 348.235 Z" id="path3527"/>
  <path class="cls-9" d="M 213.132 474.024 C 188.407 487.853 158.754 489.922 132.352 479.608 C 134.814 475.47 139.051 472.678 143.845 472.053 L 151.397 472.053 C 151.397 469.427 148.771 472.053 147.457 470.085 C 140.298 471.563 132.942 471.563 125.783 470.085 C 106.474 450.148 104.406 419.174 120.858 396.843 C 131.17 392.276 142.629 391.028 153.696 393.229 C 158.918 394.182 163.876 396.317 168.146 399.469 C 185.55 419.504 214.117 430.343 228.897 452.348 C 230.472 462.692 223.443 472.35 213.132 474.024 Z" id="path3531"/>
  <path class="cls-10" d="M 122.172 399.139 C 111.303 422.556 115.144 450.213 132.022 469.756 C 138.263 467.129 140.561 469.756 141.876 475.996 L 132.352 479.936 C 77.51 463.251 37.546 415.957 30.223 359.07 C 42.834 367.775 56.659 374.54 71.27 379.105 C 86.969 378.875 102.501 382.717 116.26 390.274 C 119.379 392.276 121.548 395.495 122.172 399.139 Z" id="path3533"/>
  <path class="cls-13" d="M 258.781 393.885 C 285.967 384.293 311.647 370.797 334.962 353.815 C 334.076 397.4 311.22 437.568 274.211 460.558 C 261.962 468.836 245.707 467.885 234.478 458.259 C 233.823 432.97 252.868 415.892 258.781 393.885 Z" id="path3539"/>
  <path class="cls-14" d="M 334.633 348.235 C 312.106 335.686 294.343 316.045 284.061 292.398 C 278.249 280.869 275.129 268.189 274.867 255.284 C 274.867 245.101 260.746 235.577 272.569 224.41 C 293.256 224.41 297.854 245.101 310.004 257.255 C 332.467 281.821 341.628 315.715 334.633 348.235 Z" id="path3541"/>
  <path class="cls-15" d="M 168.474 58.22 C 178.654 56.345 188.176 51.813 196.058 45.081 L 208.537 104.857 C 212.182 118.193 207.978 132.412 197.699 141.643 C 173.005 121.575 161.71 89.321 168.474 58.22 Z" id="path3543"/>
  <path class="cls-16" d="M 196.058 140.986 L 207.552 104.857 C 216.188 129.325 229.813 151.692 247.615 170.544 C 251.487 177.312 252.669 185.292 250.899 192.882 C 242.028 203.06 236.121 192.882 230.536 188.937 C 216.484 177.772 204.761 163.944 196.058 148.211 C 195.138 145.879 195.138 143.317 196.058 140.986 Z" id="path3545"/>
  <path class="cls-17" d="M 248.267 196.821 L 248.267 170.873 C 272.142 196.46 292.863 224.803 310.004 255.284 L 274.541 225.394 C 267.713 222.702 261.306 219.057 255.492 214.558 C 251.687 212.324 248.6 209.005 246.629 205.031 C 245.776 202.206 246.396 199.121 248.267 196.821 Z" id="path3547"/>
  <path class="cls-19" d="M 233.494 452.348 C 246.528 457.076 260.386 459.112 274.211 458.259 C 259.668 471.596 241.278 480.001 221.672 482.234 C 216.086 484.206 213.79 477.967 213.462 472.383 L 228.897 455.303 C 227.748 453.53 228.963 451.199 231.064 451.1 C 232.049 451.068 232.965 451.528 233.494 452.348 Z" id="path3551"/>
  <path class="cls-20" d="M 116.917 84.822 L 121.843 79.568 C 134.126 83.18 142.662 94.349 142.86 107.156 C 147.293 122.265 153.466 136.815 161.25 150.509 C 166.832 164.962 180.296 156.751 189.162 160.692 C 191.624 167.72 191.624 175.343 189.162 182.37 C 188.176 205.688 166.504 220.14 163.221 242.802 C 160.92 251.997 158.294 261.523 156.322 270.718 C 154.78 283.133 155.568 295.715 158.622 307.832 C 155.338 315.389 137.933 322.284 158.622 330.498 C 167.816 334.11 164.533 343.305 158.622 349.876 C 153.566 358.873 144.567 364.952 134.321 366.294 C 103.683 343.863 83.981 309.511 80.138 271.707 C 92.78 262.541 107.623 256.894 123.157 255.284 C 128.114 243.622 127.524 230.323 121.514 219.155 C 121.975 187.952 113.666 157.211 97.542 130.474 C 100.005 113.854 106.672 98.158 116.917 84.822 Z" id="path3555"/>
  <path class="cls-21" d="M 187.849 161.021 C 172.414 170.873 163.221 172.517 153.368 150.509 C 146.373 125.22 135.275 101.278 120.528 79.568 C 130.677 59.369 145.29 41.765 163.221 28.002 C 168.899 37.363 171.233 48.364 169.786 59.204 C 172.316 88.106 181.28 116.059 196.058 140.986 C 196.222 142.53 196.222 144.072 196.058 145.583 C 198.653 152.154 194.744 159.51 187.849 161.021 Z" id="path3557"/>
  <path class="cls-22" d="M 116.917 84.822 C 110.579 99.571 105.522 114.843 101.812 130.474 C 97.213 141.315 101.812 153.14 97.871 163.32 C 94.882 180.432 90.382 197.248 84.407 213.573 C 76.854 224.41 70.615 225.722 64.705 211.271 C 63.194 197.971 63.194 184.537 64.705 171.201 C 76.197 139.246 93.963 109.88 116.917 84.822 Z" id="path3559"/>
  <path class="cls-23" d="M 76.197 277.289 C 59.777 290.428 46.642 274.334 31.537 272.364 C 32.554 258.37 36.101 244.673 42.045 231.965 C 54.984 225.657 70.582 229.697 78.824 241.49 C 83.094 250.424 83.094 260.8 78.824 269.734 C 78.561 272.429 77.675 275.023 76.197 277.289 Z" id="path3561"/>
  <path class="cls-24" d="M 75.541 241.817 C 65.065 237.154 54.03 233.837 42.702 231.965 C 48.383 210.78 56.659 190.349 67.331 171.201 C 72.815 183.223 74.424 196.657 71.929 209.631 C 71.929 224.41 77.839 212.26 81.123 209.631 C 91.205 219.32 88.282 236.102 75.541 241.817 Z" id="path3563"/>
  <path class="cls-25" d="M 76.197 277.289 L 76.197 272.035 C 77.248 270.59 79.415 270.59 80.465 272.035 C 91.927 306.321 111.007 337.525 136.292 363.34 C 141.119 364.422 143.91 369.516 142.202 374.179 C 136.949 384.228 127.393 391.357 116.26 393.558 C 100.365 390.667 84.998 385.442 70.615 378.119 L 70.615 327.867 Z" id="path3565"/>
  <path class="cls-27" d="M 157.965 307.505 C 153.696 296.01 140.561 285.826 152.383 272.035 C 167.686 269.831 181.873 262.672 192.775 251.671 C 197.044 245.101 206.567 251.671 213.462 254.956 C 223.473 263.067 234.509 269.802 246.302 274.99 C 249.06 267.303 250.603 259.192 250.899 251.012 C 251.85 248.549 253.428 246.415 255.492 244.772 C 264.46 240.865 274.937 243.918 280.454 251.997 C 286.033 264.708 287.74 278.734 285.375 292.398 C 274.937 308.294 258.448 319.197 239.731 322.614 C 230.404 318.835 221.935 313.254 214.776 306.19 C 201.313 295.025 191.46 294.697 184.893 313.089 C 183.152 317.851 179.605 321.759 175.041 323.926 C 165.649 324.517 157.768 316.932 157.965 307.505 Z" id="path3569"/>
  <path class="cls-28" d="M 157.965 307.505 C 163.778 311.646 168.703 316.866 172.414 322.941 C 178.228 323.139 182.791 327.968 182.594 333.782 C 193.793 353.652 209.686 370.436 228.897 382.717 C 239.405 389.944 235.464 393.229 228.897 398.483 C 210.967 410.406 188.21 412.377 168.474 403.74 L 158.622 398.483 C 149.098 393.951 142.959 384.393 142.86 373.85 L 137.278 363.668 C 144.173 357.757 151.07 351.846 157.307 345.603 C 163.547 339.363 163.547 335.75 157.307 334.11 C 109.365 320.971 146.472 315.715 157.965 307.505 Z" id="path3571"/>
  <path class="cls-29" d="M 167.816 403.74 L 228.897 398.483 L 259.433 393.885 C 259.798 416.252 250.307 437.6 233.494 452.348 L 229.225 452.348 C 206.631 439.012 185.976 422.656 167.816 403.74 Z" id="path3573"/>
  <path class="cls-30" d="M 182.594 333.782 L 172.414 322.941 C 194.088 279.916 198.029 279.26 232.838 314.403 C 234.936 316.998 236.81 319.722 238.42 322.614 C 221.045 331.022 201.839 334.863 182.594 333.782 Z" id="path3575"/>
  <path class="cls-31" d="M 142.202 373.85 C 149.198 380.811 154.583 389.223 157.965 398.483 L 122.172 398.483 L 116.917 393.558 C 127.754 390.603 127.426 372.538 142.202 373.85 Z" id="path3577"/>
  <path class="cls-32" d="M 142.202 475.996 L 132.352 469.756 C 145.158 456.946 156.652 469.756 171.101 469.756 C 163.221 485.191 151.397 477.309 142.202 475.996 Z" id="path3579"/>
  <path class="cls-33" d="M 279.136 251.997 L 253.853 247.07 C 236.775 232.95 241.043 221.781 258.781 214.23 C 265.706 216.495 271.39 221.455 274.541 228.02 C 267.976 236.235 281.107 242.802 279.136 251.997 Z" id="path3581"/>
  <path class="cls-34" d="M 187.849 161.021 L 198.029 145.912 L 248.267 196.821 L 248.267 206.016 C 251.555 225.722 238.746 222.767 229.225 217.512 C 211.328 208.873 195.5 196.46 182.924 181.056 Z" id="path3583"/>
  <path class="cls-35" d="M 182.924 181.056 C 199.407 188.871 214.842 198.694 228.897 210.286 C 237.435 215.871 245.317 221.455 248.6 205.688 L 258.448 212.587 C 248.958 220.863 246.892 234.757 253.526 245.429 L 253.526 251.997 C 243.966 258.337 231.13 255.843 224.628 246.415 C 212.247 230.748 189.391 228.35 174.057 241.16 C 169.098 244.477 162.596 244.477 157.637 241.16 C 157.307 217.842 184.236 205.36 182.924 181.056 Z" id="path3585"/>
  <path class="cls-33" d="M 157.637 241.817 C 180.362 219.057 217.995 221.848 237.107 247.731 C 241.671 251.507 247.677 253.084 253.526 251.997 C 254.771 262.903 254.771 273.939 253.526 284.842 C 239.7 283.989 226.857 277.454 218.059 266.778 C 206.892 259.881 194.088 240.175 185.221 271.707 C 180.952 286.155 163.221 267.764 152.383 271.707 C 152.481 261.523 154.254 251.439 157.637 241.817 Z" id="path3587"/>
  <path class="cls-36" d="M 81.123 272.364 L 76.854 272.364 L 76.854 242.145 L 81.781 211.602 L 92.289 161.021 C 95.539 160.134 98.954 161.809 100.17 164.962 C 111.695 194.819 120.726 225.559 127.097 256.926 Z" id="path3589"/>
  <path class="cls-37" d="M 126.768 256.926 C 112.517 226.019 100.99 193.933 92.289 161.021 C 92.78 150.184 96.064 139.672 101.812 130.474 C 134.651 166.931 119.543 216.857 136.62 257.91 C 136.62 261.195 136.62 265.135 131.694 262.508 C 129.723 260.997 128.05 259.093 126.768 256.926 Z" id="path3591"/>
</svg>